<?xml version="1.0" encoding="utf-8"?>
<!-- Generator: Adobe Illustrator 25.0.1, SVG Export Plug-In . SVG Version: 6.00 Build 0)  -->
<svg version="1.1" id="Layer_1" xmlns="http://www.w3.org/2000/svg" xmlns:xlink="http://www.w3.org/1999/xlink" x="0px" y="0px"
	 viewBox="0 0 512 512" style="enable-background:new 0 0 512 512;" xml:space="preserve">
<style type="text/css">
	.st0{fill:#8F49F9;}
</style>
<path class="st0" d="M0,256C0,114.6,114.6,0,256,0s256,114.6,256,256S397.4,512,256,512S0,397.4,0,256z M256,368
	c13.3,0,24-10.7,24-24v-64h64c13.3,0,24-10.7,24-24c0-13.3-10.7-24-24-24h-64v-64c0-13.3-10.7-24-24-24c-13.3,0-24,10.7-24,24v64
	h-64c-13.3,0-24,10.7-24,24c0,13.3,10.7,24,24,24h64v64C232,357.3,242.7,368,256,368z"/>
</svg>
